<svg viewBox="0 0 913 240" fill="none" xmlns="http://www.w3.org/2000/svg">
  <rect width="240" height="240" fill="#1E1E24"/>
  <rect width="240" height="240" fill="#FF1B1C"/>
  <path d="M202 100.125H161.25C161.25 88.8722 152.128 79.75 140.875 79.75V39C174.633 39 202 66.3666 202 100.125Z" fill="white"/>
  <path d="M140.875 161.25V120.5C152.128 120.5 161.25 111.378 161.25 100.125H202C202 133.883 174.633 161.25 140.875 161.25Z" fill="white"/>
  <path d="M39 39H79.75V161L39 201.75V39Z" fill="white"/>
  <path d="M79.75 39H140.875V79.75H79.75V39Z" fill="white"/>
  <path d="M120.5 120.5V161.25H79.75L120.5 120.5Z" fill="white"/>
  <path d="M120.5 120.5H140.875V161.25H120.5V120.5Z" fill="white"/>
  <line x1="206" y1="136.5" x2="207" y2="136.5" stroke="black"/>
  <path d="M301.614 71.493H348.943C359.991 71.493 368.352 74.6781 374.026 81.0484C379.799 87.3191 382.685 95.5805 382.685 105.833C382.685 112.402 381.292 118.225 378.505 123.301C375.718 128.377 371.687 132.359 366.411 135.245C361.236 138.032 355.214 139.426 348.346 139.426H325.652V167.644H301.614V71.493ZM342.971 120.912C347.948 120.912 351.73 119.568 354.318 116.881C356.906 114.094 358.2 110.361 358.2 105.683C358.2 100.607 357.005 96.7251 354.617 94.0377C352.228 91.3502 348.595 90.0065 343.718 90.0065H325.652V120.912H342.971Z" fill="white"/>
  <path d="M392.158 71.493H440.233C451.282 71.493 459.543 74.4293 465.017 80.3019C470.591 86.0749 473.378 94.1372 473.378 104.489C473.378 110.959 471.736 116.632 468.451 121.509C465.266 126.387 460.787 130.02 455.014 132.408C456.308 133.503 457.353 134.698 458.15 135.992C459.045 137.286 460.041 139.177 461.136 141.665L472.483 167.644H447.4L436.65 143.158C435.754 140.968 434.61 139.426 433.216 138.53C431.823 137.634 429.832 137.186 427.244 137.186H416.196V167.644H392.158V71.493ZM433.963 118.673C438.74 118.673 442.423 117.478 445.011 115.089C447.599 112.7 448.893 109.167 448.893 104.489C448.893 94.834 444.264 90.0065 435.008 90.0065H416.196V118.673H433.963Z" fill="white"/>
  <path d="M528.371 169.137C512.545 169.137 500.6 165.106 492.538 157.043C484.476 148.981 480.445 136.639 480.445 120.016C480.445 102.598 484.426 89.907 492.389 81.9442C500.352 73.9814 512.346 70 528.371 70C544.296 70 556.24 73.9814 564.203 81.9442C572.266 89.907 576.297 102.598 576.297 120.016C576.297 136.639 572.266 148.981 564.203 157.043C556.141 165.106 544.197 169.137 528.371 169.137ZM528.371 148.682C536.433 148.682 542.306 146.393 545.988 141.814C549.771 137.136 551.662 129.87 551.662 120.016C551.662 109.366 549.82 101.801 546.138 97.3223C542.455 92.8433 536.533 90.6037 528.371 90.6037C520.109 90.6037 514.137 92.8433 510.454 97.3223C506.772 101.801 504.93 109.366 504.93 120.016C504.93 129.87 506.772 137.136 510.454 141.814C514.237 146.393 520.209 148.682 528.371 148.682Z" fill="white"/>
  <path d="M673.748 169.137C657.225 169.137 644.584 164.956 635.825 156.595C627.166 148.234 622.836 136.34 622.836 120.912C622.836 104.688 627.315 92.1465 636.273 83.2879C645.231 74.4293 658.221 70 675.241 70C686.488 70 696.293 71.3935 704.654 74.1805V94.7842C697.089 91.9972 687.882 90.6037 677.033 90.6037C666.681 90.6037 659.116 93.0423 654.339 97.9195C649.661 102.797 647.321 110.461 647.321 120.912C647.321 130.368 649.511 137.385 653.891 141.964C658.37 146.443 665.039 148.682 673.897 148.682C679.67 148.682 685.045 147.886 690.022 146.293V128.079H669.269V112.999H710.178V160.627C706.296 163.115 701.319 165.155 695.248 166.748C689.176 168.34 682.009 169.137 673.748 169.137Z" fill="white"/>
  <path d="M747.285 132.259L712.796 71.493H737.879L759.379 111.357L780.878 71.493H805.961L771.472 132.259V167.644H747.285V132.259Z" fill="white"/>
  <path d="M812.887 71.493H836.626L862.754 124.794L888.733 71.493H912.323V167.644H888.285V112.402L869.324 151.22H856.036L836.925 112.402V167.644H812.887V71.493Z" fill="white"/>
</svg>